<svg xmlns="http://www.w3.org/2000/svg" viewBox="0 0 171.54 288.68"><defs><style>.cls-1{fill:#31325d;}</style></defs><g id="Layer_2" data-name="Layer 2"><g id="Layer_1-2" data-name="Layer 1"><path class="cls-1" d="M82.44,288.68c-8.35-3.89-7-11.05-6.07-18.05a6.73,6.73,0,0,1,.51-2.41c3.63-6.4,3.28-13.45,3.39-20.4.46-26.47,1-52.94,1.13-79.41a111,111,0,0,0-2.27-20.84c-.3-1.55-3.74-2.51-5.63-3.67l-4.93,4.3-.92-.65,1.7-4.54-9.17-8.61-4.09,1.29-.93-1.05,5.49-2.87c-4.91-4.73-.78-14.18-12.36-12.86,4.47-2.32,9-2.18,8.76-7.63-.15-3.41,3.49-7-1.06-10.57,5.38,1.88,6.56-2.83,9.47-4.62,4.12-2.54,3.25-5.69,2-9.72,3.24,4.61,6.61,3.39,10.91,2.9,5.53-.62,5.74-3.87,7.05-8.13.33,9.86,8.64,6.65,13.16,9.51l4.23-5c-.85,4.12-1.2,7.45,3,10.18,2.93,1.9,4.49,6.22,9.52,4.6l-3.23,4.08c4.5,3.07-1,13.14,9.36,12.84l-5.77,1.88c-.9,3.55-1.83,7.23-2.85,11.31l3.78,4.09-6.22-.74c-2,5-11.27,6.27-6.54,15.13-3-2.32-3.73-6.29-8.13-4-2.34,1.23-2.8,2.41-3.08,4.79-3.41,28-.61,56.08-.77,84.12-.05,8.31-.07,16.67.7,24.93.57,6,2.38,11.94,3.76,17.87,1.15,4.92-.33,8.36-5.12,10.31-.7.29-1.2,1.06-1.8,1.61Z"/><path class="cls-1" d="M119.91,158.85c3.22-4.69,6.58-8.84,9.15-13.43,17.21-30.72,1.41-70.77-31.38-79.86-24.59-6.81-50.93,8.54-59,35-6.49,21.44-2,40.79,13.51,57.82q-9.42,14.1-18.95,28.32l-1.31.13c10.39-33.25-.92-57.16-32-73.44,14.1-2.56,26-5.94,32.91-18.65,6.61-12.18,7.32-24.18.53-37.22,6.3,1.61,11.35,3.21,16.53,4.15,9.1,1.66,22.2-6,26.65-14C83.4,35.46,82,21.84,84.41,8.87,85,6,85.18,3,86.33,0c1.11,9.07,2.74,18.11,3.16,27.2a46.52,46.52,0,0,0,8.3,24.68c2.69,3.84,8.54,5.9,13.36,7.75,8.55,3.26,17.18,2.42,26.18-2-5.34,13-5,24.86,1.52,37,6.86,12.63,18.69,16,32.69,18.93-30.75,16.37-41.9,40.15-31.7,73l-1.26.09Z"/></g></g></svg>