<?xml version="1.0" encoding="utf-8"?>
<!-- Generator: Adobe Illustrator 26.0.1, SVG Export Plug-In . SVG Version: 6.00 Build 0)  -->
<svg version="1.1" id="Layer_1" xmlns:svgjs="http://svgjs.com/svgjs"
	 xmlns="http://www.w3.org/2000/svg" xmlns:xlink="http://www.w3.org/1999/xlink" x="0px" y="0px" viewBox="0 0 512 512"
	 style="enable-background:new 0 0 512 512;" xml:space="preserve">
<g>
	<path d="M507.6,82.3L429.7,4.4c-5.9-5.9-15.4-5.9-21.2,0l-41.3,41.3l-2.4-2.4c-9.8-9.8-22.8-15.1-36.6-15.1
		c-13.8,0-26.8,5.4-36.6,15.1c-9.8,9.8-15.1,22.7-15.1,36.6c0,8.7,2.1,17,6.1,24.4l-21,21c-20.4-6.8-41.6-10.3-63.2-10.3
		c-53,0-102.9,20.6-140.4,58.1c-77.4,77.4-77.4,203.4,0,280.8c37.5,37.5,87.4,58.1,140.4,58.1c53,0,102.9-20.6,140.4-58.1
		c53.5-53.5,71.7-132.4,47.9-203.6l21-21c7.4,4,15.7,6.1,24.4,6.1c13.8,0,26.8-5.4,36.6-15.1c9.8-9.8,15.1-22.8,15.1-36.6
		c0-13.8-5.4-26.8-15.1-36.6l-2.4-2.4l41.3-41.3C513.4,97.6,513.4,88.1,507.6,82.3L507.6,82.3z M355.4,251.9
		c24.5,62.4,9.6,133.4-37.7,180.8c-31.8,31.8-74.2,49.4-119.2,49.4c-45,0-87.3-17.5-119.2-49.4c-65.7-65.7-65.7-172.6,0-238.3
		c31.8-31.8,74.1-49.4,119.2-49.4c21.2,0,41.9,3.9,61.6,11.6c5.6,2.2,11.9,0.9,16.1-3.4l26.2-26.2l82.6,82.6l-26.2,26.2
		C354.5,240,353.2,246.3,355.4,251.9z M447.4,199c-4.1,4.1-9.6,6.4-15.3,6.4s-11.2-2.3-15.4-6.4L312.9,95.2
		c-4.1-4.1-6.4-9.6-6.4-15.3c0-5.8,2.3-11.2,6.4-15.3c4.1-4.1,9.5-6.4,15.3-6.4s11.2,2.3,15.3,6.4l13,13c0,0,0,0,0,0l77.9,77.9
		c0,0,0,0,0,0l13,13c4.1,4.1,6.4,9.6,6.4,15.3S451.5,195,447.4,199z M445,123.6l-7.9-7.9l-48.8-48.8l30.7-30.7l56.7,56.7L445,123.6z
		"/>
	<path d="M332.6,308.9c-0.1-3.8-1.7-7.4-4.4-10.1L213.1,183.7c-2.7-2.7-6.3-4.3-10.1-4.4c-1.5-0.1-3.1-0.1-4.6-0.1
		c-35.9,0-69.6,14-94.9,39.3c-52.3,52.3-52.3,137.5,0,189.9c25.4,25.4,59.1,39.3,94.9,39.3h0c35.9,0,69.6-14,94.9-39.3
		C319.6,382.2,333.9,346,332.6,308.9z"/>
</g>
</svg>
