<?xml version="1.0" encoding="utf-8"?>
<!-- Generator: Adobe Illustrator 26.0.1, SVG Export Plug-In . SVG Version: 6.00 Build 0)  -->
<svg version="1.1" id="Layer_1" xmlns:svgjs="http://svgjs.com/svgjs"
	 xmlns="http://www.w3.org/2000/svg" xmlns:xlink="http://www.w3.org/1999/xlink" x="0px" y="0px" viewBox="0 0 512 512"
	 style="enable-background:new 0 0 512 512;" xml:space="preserve">
<style type="text/css">
	.st0{fill:#31325D;}
</style>
<g>
	<path class="st0" d="M347.3,100.7c-6.3-6.3-16.4-6.3-22.6,0l-320,320c-6.3,6.3-6.3,16.4,0,22.6l64,64c3.1,3.1,7.2,4.7,11.3,4.7
		c4.1,0,8.2-1.6,11.3-4.7l320-320c6.3-6.3,6.3-16.4,0-22.6L347.3,100.7L347.3,100.7z M80,473.4L38.6,432L256,214.6l41.4,41.4
		C297.4,256,80,473.4,80,473.4z M320,233.4L278.6,192l57.4-57.4l41.4,41.4L320,233.4z"/>
	<path class="st0" d="M224,128c16-32,32-48,64-64c-32-16-48-32-64-64c-16,32-32,48-64,64C192,80,208,96,224,128z"/>
	<path class="st0" d="M480,224c-8,16-16,24-32,32c16,8,24,16,32,32c8-16,16-24,32-32C496,248,488,240,480,224z"/>
	<path class="st0" d="M480,48c-24-12-36-24-48-48c-12,24-24,36-48,48c24,12,36,24,48,48C444,72,456,60,480,48z"/>
</g>
</svg>
