<?xml version="1.0" encoding="utf-8"?>
<!-- Generator: Adobe Illustrator 26.0.1, SVG Export Plug-In . SVG Version: 6.00 Build 0)  -->
<svg version="1.1" id="Layer_1" xmlns:svgjs="http://svgjs.com/svgjs"
	 xmlns="http://www.w3.org/2000/svg" xmlns:xlink="http://www.w3.org/1999/xlink" x="0px" y="0px" viewBox="0 0 512 512"
	 style="enable-background:new 0 0 512 512;" xml:space="preserve">
<style type="text/css">
	.st0{fill:#31325D;}
</style>
<g>
	<path class="st0" d="M337.4,107.5c-6.1-6.1-15.9-6.1-22,0L4.6,422.2c-6.1,6.1-6.1,16.1,0,22.2l62.2,62.9c3,3.1,7,4.6,11,4.6
		c4,0,8-1.5,11-4.6l310.9-314.7c6.1-6.1,6.1-16.1,0-22.2L337.4,107.5L337.4,107.5z M77.7,474l-40.2-40.7l211.2-213.7l40.2,40.7
		C288.9,260.3,77.7,474,77.7,474z M310.9,238l-40.2-40.7l55.7-56.4l40.2,40.7L310.9,238z"/>
</g>
<polygon class="st0" points="479.5,133.5 379.8,33.5 392.3,21 492,121 "/>
<polygon class="st0" points="486.6,33.5 386.9,133.5 374.5,121 474.2,21 "/>
</svg>
